<?xml version="1.0" standalone="no"?><svg xmlns="http://www.w3.org/2000/svg" viewBox="0 0 1440 240"><path fill="#fc016a" fill-opacity="1" d="M0,256L40,245.3C80,235,160,213,240,202.7C320,192,400,192,480,186.7C560,181,640,171,720,160C800,149,880,139,960,154.7C1040,171,1120,213,1200,234.7C1280,256,1360,256,1400,256L1440,256L1440,320L1400,320C1360,320,1280,320,1200,320C1120,320,1040,320,960,320C880,320,800,320,720,320C640,320,560,320,480,320C400,320,320,320,240,320C160,320,80,320,40,320L0,320Z"></path></svg>