<?xml version="1.0" standalone="no"?><svg xmlns="http://www.w3.org/2000/svg" viewBox="0 0 1440 320"><path fill="#292C6D" fill-opacity="1" d="M0,96L21.8,101.3C43.6,107,87,117,131,106.7C174.5,96,218,64,262,74.7C305.5,85,349,139,393,149.3C436.4,160,480,128,524,138.7C567.3,149,611,203,655,218.7C698.2,235,742,213,785,202.7C829.1,192,873,192,916,208C960,224,1004,256,1047,245.3C1090.9,235,1135,181,1178,181.3C1221.8,181,1265,235,1309,218.7C1352.7,203,1396,117,1418,74.7L1440,32L1440,320L1418.2,320C1396.4,320,1353,320,1309,320C1265.5,320,1222,320,1178,320C1134.5,320,1091,320,1047,320C1003.6,320,960,320,916,320C872.7,320,829,320,785,320C741.8,320,698,320,655,320C610.9,320,567,320,524,320C480,320,436,320,393,320C349.1,320,305,320,262,320C218.2,320,175,320,131,320C87.3,320,44,320,22,320L0,320Z"></path></svg>